<mxfile host="app.diagrams.net" modified="2023-12-21T14:23:23.027Z" agent="Mozilla/5.0 (Windows NT 10.0; Win64; x64) AppleWebKit/537.36 (KHTML, like Gecko) Chrome/120.0.0.0 Safari/537.36 Edg/120.0.0.0" etag="k8l9KTlIFxYZ59LCGgel" version="22.1.11" type="device">
  <diagram name="Seite-1" id="lSAEV5kiEXorIKWx-UKZ">
    <mxGraphModel dx="2432" dy="1396" grid="1" gridSize="10" guides="1" tooltips="1" connect="1" arrows="1" fold="1" page="1" pageScale="1" pageWidth="1654" pageHeight="1169" math="0" shadow="0">
      <root>
        <mxCell id="0" />
        <mxCell id="1" parent="0" />
        <mxCell id="Z73R_k7jhBnc4-fD302s-1" value="" style="rounded=0;whiteSpace=wrap;html=1;" vertex="1" parent="1">
          <mxGeometry x="1130" y="130" width="200" height="270" as="geometry" />
        </mxCell>
        <mxCell id="Z73R_k7jhBnc4-fD302s-2" value="" style="rounded=0;whiteSpace=wrap;html=1;" vertex="1" parent="1">
          <mxGeometry x="50" y="130" width="860" height="270" as="geometry" />
        </mxCell>
        <mxCell id="Z73R_k7jhBnc4-fD302s-3" value="&lt;b&gt;Raw Data&lt;/b&gt;" style="rounded=0;whiteSpace=wrap;html=1;fillColor=#f5f5f5;fontColor=#333333;strokeColor=#666666;" vertex="1" parent="1">
          <mxGeometry x="254" y="210" width="120" height="90" as="geometry" />
        </mxCell>
        <mxCell id="Z73R_k7jhBnc4-fD302s-4" value="&lt;font style=&quot;font-size: 30px;&quot;&gt;ML-Pipeline Coding Logic&lt;/font&gt;" style="text;strokeColor=none;align=center;fillColor=none;html=1;verticalAlign=middle;whiteSpace=wrap;rounded=0;" vertex="1" parent="1">
          <mxGeometry x="24" y="20" width="374" height="40" as="geometry" />
        </mxCell>
        <mxCell id="Z73R_k7jhBnc4-fD302s-5" style="edgeStyle=orthogonalEdgeStyle;rounded=0;orthogonalLoop=1;jettySize=auto;html=1;entryX=0;entryY=0.5;entryDx=0;entryDy=0;" edge="1" parent="1" source="Z73R_k7jhBnc4-fD302s-6" target="Z73R_k7jhBnc4-fD302s-14">
          <mxGeometry relative="1" as="geometry" />
        </mxCell>
        <mxCell id="Z73R_k7jhBnc4-fD302s-6" value="&lt;b&gt;impute_data.py&lt;/b&gt;" style="rounded=0;whiteSpace=wrap;html=1;fillColor=#ffe6cc;strokeColor=#d79b00;" vertex="1" parent="1">
          <mxGeometry x="600" y="150" width="120" height="90" as="geometry" />
        </mxCell>
        <mxCell id="Z73R_k7jhBnc4-fD302s-7" style="edgeStyle=orthogonalEdgeStyle;rounded=0;orthogonalLoop=1;jettySize=auto;html=1;entryX=0;entryY=0.5;entryDx=0;entryDy=0;" edge="1" parent="1" source="Z73R_k7jhBnc4-fD302s-8" target="Z73R_k7jhBnc4-fD302s-6">
          <mxGeometry relative="1" as="geometry" />
        </mxCell>
        <mxCell id="Z73R_k7jhBnc4-fD302s-8" value="&lt;b&gt;Train Data&lt;/b&gt;" style="rounded=0;whiteSpace=wrap;html=1;fillColor=#f5f5f5;fontColor=#333333;strokeColor=#666666;" vertex="1" parent="1">
          <mxGeometry x="444" y="150" width="120" height="90" as="geometry" />
        </mxCell>
        <mxCell id="Z73R_k7jhBnc4-fD302s-9" style="edgeStyle=orthogonalEdgeStyle;rounded=0;orthogonalLoop=1;jettySize=auto;html=1;entryX=0;entryY=0.5;entryDx=0;entryDy=0;" edge="1" parent="1" source="Z73R_k7jhBnc4-fD302s-10" target="Z73R_k7jhBnc4-fD302s-16">
          <mxGeometry relative="1" as="geometry" />
        </mxCell>
        <mxCell id="Z73R_k7jhBnc4-fD302s-10" value="&lt;b&gt;Test Data&lt;/b&gt;" style="rounded=0;whiteSpace=wrap;html=1;fillColor=#f5f5f5;fontColor=#333333;strokeColor=#666666;" vertex="1" parent="1">
          <mxGeometry x="444" y="290" width="120" height="90" as="geometry" />
        </mxCell>
        <mxCell id="Z73R_k7jhBnc4-fD302s-11" value="" style="endArrow=classic;html=1;rounded=0;exitX=1;exitY=0.5;exitDx=0;exitDy=0;entryX=0;entryY=0.5;entryDx=0;entryDy=0;" edge="1" parent="1" source="Z73R_k7jhBnc4-fD302s-3" target="Z73R_k7jhBnc4-fD302s-8">
          <mxGeometry width="50" height="50" relative="1" as="geometry">
            <mxPoint x="330" y="255" as="sourcePoint" />
            <mxPoint x="480" y="240" as="targetPoint" />
          </mxGeometry>
        </mxCell>
        <mxCell id="Z73R_k7jhBnc4-fD302s-12" value="" style="endArrow=classic;html=1;rounded=0;exitX=1;exitY=0.5;exitDx=0;exitDy=0;entryX=0;entryY=0.5;entryDx=0;entryDy=0;" edge="1" parent="1" source="Z73R_k7jhBnc4-fD302s-3" target="Z73R_k7jhBnc4-fD302s-10">
          <mxGeometry width="50" height="50" relative="1" as="geometry">
            <mxPoint x="330" y="255" as="sourcePoint" />
            <mxPoint x="420" y="205" as="targetPoint" />
          </mxGeometry>
        </mxCell>
        <mxCell id="Z73R_k7jhBnc4-fD302s-13" style="edgeStyle=orthogonalEdgeStyle;rounded=0;orthogonalLoop=1;jettySize=auto;html=1;entryX=0;entryY=0.5;entryDx=0;entryDy=0;" edge="1" parent="1" source="Z73R_k7jhBnc4-fD302s-14" target="Z73R_k7jhBnc4-fD302s-24">
          <mxGeometry relative="1" as="geometry" />
        </mxCell>
        <mxCell id="Z73R_k7jhBnc4-fD302s-14" value="&lt;b&gt;outlier_removal.py&lt;/b&gt;" style="rounded=0;whiteSpace=wrap;html=1;fillColor=#ffe6cc;strokeColor=#d79b00;" vertex="1" parent="1">
          <mxGeometry x="750" y="150" width="120" height="90" as="geometry" />
        </mxCell>
        <mxCell id="Z73R_k7jhBnc4-fD302s-15" style="edgeStyle=orthogonalEdgeStyle;rounded=0;orthogonalLoop=1;jettySize=auto;html=1;entryX=0;entryY=0.5;entryDx=0;entryDy=0;" edge="1" parent="1" source="Z73R_k7jhBnc4-fD302s-16" target="Z73R_k7jhBnc4-fD302s-18">
          <mxGeometry relative="1" as="geometry" />
        </mxCell>
        <mxCell id="Z73R_k7jhBnc4-fD302s-16" value="&lt;b&gt;impute_data.py&lt;/b&gt;" style="rounded=0;whiteSpace=wrap;html=1;fillColor=#ffe6cc;strokeColor=#d79b00;" vertex="1" parent="1">
          <mxGeometry x="600" y="290" width="120" height="90" as="geometry" />
        </mxCell>
        <mxCell id="Z73R_k7jhBnc4-fD302s-17" style="edgeStyle=orthogonalEdgeStyle;rounded=0;orthogonalLoop=1;jettySize=auto;html=1;" edge="1" parent="1" source="Z73R_k7jhBnc4-fD302s-18" target="Z73R_k7jhBnc4-fD302s-26">
          <mxGeometry relative="1" as="geometry" />
        </mxCell>
        <mxCell id="Z73R_k7jhBnc4-fD302s-18" value="&lt;b&gt;outlier_removal.py&lt;/b&gt;" style="rounded=0;whiteSpace=wrap;html=1;fillColor=#ffe6cc;strokeColor=#d79b00;" vertex="1" parent="1">
          <mxGeometry x="750" y="290" width="120" height="90" as="geometry" />
        </mxCell>
        <mxCell id="Z73R_k7jhBnc4-fD302s-19" style="edgeStyle=orthogonalEdgeStyle;rounded=0;orthogonalLoop=1;jettySize=auto;html=1;" edge="1" parent="1" source="Z73R_k7jhBnc4-fD302s-20" target="Z73R_k7jhBnc4-fD302s-30">
          <mxGeometry relative="1" as="geometry" />
        </mxCell>
        <mxCell id="Z73R_k7jhBnc4-fD302s-20" value="&lt;b&gt;preprocess_train.py&lt;/b&gt;" style="rounded=0;whiteSpace=wrap;html=1;fillColor=#ffe6cc;strokeColor=#d79b00;" vertex="1" parent="1">
          <mxGeometry x="1170" y="150" width="120" height="90" as="geometry" />
        </mxCell>
        <mxCell id="Z73R_k7jhBnc4-fD302s-21" value="&lt;b&gt;preprocess_train.py&lt;/b&gt;" style="rounded=0;whiteSpace=wrap;html=1;fillColor=#ffe6cc;strokeColor=#d79b00;" vertex="1" parent="1">
          <mxGeometry x="1170" y="290" width="120" height="90" as="geometry" />
        </mxCell>
        <mxCell id="Z73R_k7jhBnc4-fD302s-22" value="&lt;b&gt;1&lt;/b&gt;" style="ellipse;whiteSpace=wrap;html=1;fillColor=#f8cecc;strokeColor=#b85450;" vertex="1" parent="1">
          <mxGeometry x="40" y="110" width="30" height="30" as="geometry" />
        </mxCell>
        <mxCell id="Z73R_k7jhBnc4-fD302s-23" style="edgeStyle=orthogonalEdgeStyle;rounded=0;orthogonalLoop=1;jettySize=auto;html=1;" edge="1" parent="1" source="Z73R_k7jhBnc4-fD302s-24" target="Z73R_k7jhBnc4-fD302s-20">
          <mxGeometry relative="1" as="geometry" />
        </mxCell>
        <mxCell id="Z73R_k7jhBnc4-fD302s-24" value="&lt;b&gt;Adjusted Train Data&lt;/b&gt;" style="rounded=0;whiteSpace=wrap;html=1;fillColor=#f5f5f5;fontColor=#333333;strokeColor=#666666;" vertex="1" parent="1">
          <mxGeometry x="960" y="150" width="120" height="90" as="geometry" />
        </mxCell>
        <mxCell id="Z73R_k7jhBnc4-fD302s-25" style="edgeStyle=orthogonalEdgeStyle;rounded=0;orthogonalLoop=1;jettySize=auto;html=1;entryX=0;entryY=0.5;entryDx=0;entryDy=0;" edge="1" parent="1" source="Z73R_k7jhBnc4-fD302s-26" target="Z73R_k7jhBnc4-fD302s-21">
          <mxGeometry relative="1" as="geometry" />
        </mxCell>
        <mxCell id="Z73R_k7jhBnc4-fD302s-26" value="&lt;b&gt;Adjusted Test Data&lt;/b&gt;" style="rounded=0;whiteSpace=wrap;html=1;fillColor=#f5f5f5;fontColor=#333333;strokeColor=#666666;" vertex="1" parent="1">
          <mxGeometry x="960" y="290" width="120" height="90" as="geometry" />
        </mxCell>
        <mxCell id="Z73R_k7jhBnc4-fD302s-27" value="&lt;b&gt;2&lt;/b&gt;" style="ellipse;whiteSpace=wrap;html=1;fillColor=#f8cecc;strokeColor=#b85450;" vertex="1" parent="1">
          <mxGeometry x="1116" y="110" width="30" height="30" as="geometry" />
        </mxCell>
        <mxCell id="Z73R_k7jhBnc4-fD302s-28" value="&lt;b&gt;&lt;font style=&quot;font-size: 16px;&quot;&gt;store_adjusted_data.py&lt;/font&gt;&lt;/b&gt;" style="text;strokeColor=none;align=center;fillColor=none;html=1;verticalAlign=middle;whiteSpace=wrap;rounded=0;" vertex="1" parent="1">
          <mxGeometry x="74" y="100" width="180" height="30" as="geometry" />
        </mxCell>
        <mxCell id="Z73R_k7jhBnc4-fD302s-29" value="&lt;b&gt;&lt;font style=&quot;font-size: 16px;&quot;&gt;Jupyter Notebook&lt;/font&gt;&lt;/b&gt;" style="text;strokeColor=none;align=center;fillColor=none;html=1;verticalAlign=middle;whiteSpace=wrap;rounded=0;" vertex="1" parent="1">
          <mxGeometry x="1140" y="100" width="180" height="30" as="geometry" />
        </mxCell>
        <mxCell id="Z73R_k7jhBnc4-fD302s-30" value="Model" style="ellipse;whiteSpace=wrap;html=1;fillColor=#f8cecc;strokeColor=#b85450;" vertex="1" parent="1">
          <mxGeometry x="1400" y="155" width="80" height="80" as="geometry" />
        </mxCell>
        <mxCell id="Z73R_k7jhBnc4-fD302s-31" style="edgeStyle=orthogonalEdgeStyle;rounded=0;orthogonalLoop=1;jettySize=auto;html=1;entryX=0;entryY=0.5;entryDx=0;entryDy=0;" edge="1" parent="1" source="Z73R_k7jhBnc4-fD302s-32" target="Z73R_k7jhBnc4-fD302s-3">
          <mxGeometry relative="1" as="geometry" />
        </mxCell>
        <mxCell id="Z73R_k7jhBnc4-fD302s-32" value="&lt;b&gt;store_data.py&lt;/b&gt;" style="rounded=0;whiteSpace=wrap;html=1;fillColor=#ffe6cc;strokeColor=#d79b00;" vertex="1" parent="1">
          <mxGeometry x="90" y="210" width="120" height="90" as="geometry" />
        </mxCell>
      </root>
    </mxGraphModel>
  </diagram>
</mxfile>
